<svg id="Layer_1" enable-background="new 0 0 512 512" height="512" viewBox="0 0 512 512" width="512" xmlns="http://www.w3.org/2000/svg"><g><path d="m413.1 99.4h-153c-9.1 0-16.4-7.3-16.4-16.4s-7.3-16.4-16.4-16.4h-193.8c-5.4 0-10.4 2.6-13.5 7l-15 21.6c-1.9 2.8-2.9 6-2.9 9.4v324.4c0 9.1 7.3 16.4 16.4 16.4h394.6c9.1 0 16.4-7.3 16.4-16.4v-313.2c0-9-7.3-16.4-16.4-16.4z" fill="#379fc8"/><path d="m413.1 99.4h-153c-9.1 0-16.4-7.3-16.4-16.4s-7.3-16.4-16.4-16.4h-193.8c-5.4 0-10.4 2.6-13.5 7l-15 21.6c-1.9 2.8-2.9 6-2.9 9.4v9.6c0-3.4 1-6.6 2.9-9.4l15-21.6c3.1-4.4 8.1-7 13.5-7h193.7c9.1 0 16.4 7.3 16.4 16.4s7.4 16.4 16.5 16.4h153.1c9.1 0 16.4 7.3 16.4 16.4v-9.6c-.1-9-7.4-16.4-16.5-16.4z" fill="#41b3e2"/><path d="m493.5 173.1h-393c-7.2 0-13.5 4.6-15.6 11.5l-76 239.4c-3.4 10.6 4.5 21.4 15.6 21.4h393c7.2 0 13.5-4.6 15.6-11.5l75.9-239.5c3.5-10.5-4.4-21.3-15.5-21.3z" fill="#41b3e2"/><path d="m8.9 431.8 75.9-239.5c2.2-6.8 8.5-11.5 15.6-11.5h393c7.9 0 14.1 5.5 15.9 12.5 2.5-10.2-5.2-20.2-15.9-20.2h-393c-7.2 0-13.5 4.6-15.6 11.5l-75.9 239.4c-1 3-.9 6.1-.2 8.9.1-.4.1-.8.2-1.1z" fill="#5acef2"/></g></svg>