<svg width="512" height="512" viewBox="0 0 512 512" fill="none" xmlns="http://www.w3.org/2000/svg">
<path d="M74.6665 192V117.333C74.6665 111.675 76.9141 106.249 80.9149 102.248C84.9157 98.2476 90.3419 96 95.9998 96H195.52C200.136 96 204.627 97.4971 208.32 100.267L239.68 123.733C243.373 126.503 247.864 128 252.48 128H416C421.658 128 427.084 130.248 431.085 134.248C435.086 138.249 437.333 143.675 437.333 149.333V192H74.6665Z" fill="url(#paint0_linear_39_443)"/>
<path d="M458.667 204.373L426.667 396.373C426.258 398.897 424.956 401.19 422.998 402.835C421.04 404.48 418.557 405.366 416 405.333H96C93.4433 405.366 90.9599 404.48 89.002 402.835C87.0442 401.19 85.7423 398.897 85.3334 396.373L53.3334 204.373C53.0841 202.837 53.1743 201.264 53.5976 199.766C54.0209 198.268 54.7669 196.88 55.7834 195.701C56.7999 194.522 58.0622 193.58 59.4817 192.94C60.9011 192.301 62.4433 191.98 64 192H448C449.557 191.98 451.099 192.301 452.518 192.94C453.938 193.58 455.2 194.522 456.217 195.701C457.233 196.88 457.979 198.268 458.402 199.766C458.826 201.264 458.916 202.837 458.667 204.373Z" fill="url(#paint1_linear_39_443)"/>
<path d="M426.667 478.72C426.621 483.173 425.267 487.514 422.774 491.204C420.281 494.894 416.759 497.77 412.645 499.475C408.531 501.18 404.007 501.638 399.635 500.792C395.263 499.947 391.235 497.836 388.053 494.72L330.667 437.333L362.667 405.333L420.053 462.72C422.157 464.819 423.825 467.313 424.96 470.059C426.095 472.805 426.675 475.749 426.667 478.72Z" fill="url(#paint2_linear_39_443)"/>
<path d="M344.474 391.55L316.869 419.156C312.703 423.321 312.703 430.075 316.869 434.24L323.129 440.501C327.294 444.666 334.048 444.666 338.214 440.501L365.819 412.895C369.985 408.73 369.985 401.976 365.819 397.81L359.559 391.55C355.393 387.384 348.64 387.384 344.474 391.55Z" fill="url(#paint3_linear_39_443)"/>
<path d="M266.667 448C325.577 448 373.333 400.244 373.333 341.333C373.333 282.423 325.577 234.667 266.667 234.667C207.756 234.667 160 282.423 160 341.333C160 400.244 207.756 448 266.667 448Z" fill="url(#paint4_linear_39_443)"/>
<path d="M266.667 426.667C313.795 426.667 352 388.462 352 341.333C352 294.205 313.795 256 266.667 256C219.539 256 181.333 294.205 181.333 341.333C181.333 388.462 219.539 426.667 266.667 426.667Z" fill="url(#paint5_linear_39_443)"/>
<path d="M266.667 362.667C251.414 362.667 252.48 335.893 270.08 330.133C271.938 329.506 273.587 328.379 274.845 326.875C276.104 325.372 276.924 323.551 277.215 321.612C277.507 319.673 277.258 317.691 276.496 315.884C275.734 314.077 274.489 312.515 272.898 311.37C271.306 310.225 269.43 309.54 267.475 309.392C265.52 309.243 263.561 309.636 261.815 310.528C260.069 311.42 258.602 312.776 257.577 314.447C256.551 316.118 256.005 318.039 256 320C256 322.829 254.876 325.542 252.876 327.543C250.876 329.543 248.163 330.667 245.334 330.667C224.96 330.667 234.667 288 266.667 288C274.337 287.833 281.812 290.427 287.73 295.309C293.648 300.192 297.615 307.038 298.907 314.601C300.2 322.163 298.733 329.938 294.773 336.509C290.813 343.08 284.624 348.01 277.334 350.4V352C277.334 354.829 276.21 357.542 274.209 359.543C272.209 361.543 269.496 362.667 266.667 362.667Z" fill="#B4CDE1"/>
<path d="M266.667 394.667C264.557 394.667 262.495 394.041 260.741 392.869C258.986 391.697 257.619 390.031 256.812 388.082C256.005 386.133 255.793 383.988 256.205 381.919C256.617 379.85 257.632 377.949 259.124 376.458C260.616 374.966 262.517 373.95 264.586 373.538C266.655 373.127 268.8 373.338 270.749 374.145C272.698 374.953 274.364 376.32 275.536 378.074C276.708 379.828 277.333 381.89 277.333 384C277.333 386.829 276.21 389.542 274.209 391.543C272.209 393.543 269.496 394.667 266.667 394.667Z" fill="#B4CDE1"/>
<defs>
<linearGradient id="paint0_linear_39_443" x1="256" y1="192" x2="256" y2="96" gradientUnits="userSpaceOnUse">
<stop stop-color="#54A5FF"/>
<stop offset="1" stop-color="#8AD3FE"/>
</linearGradient>
<linearGradient id="paint1_linear_39_443" x1="256" y1="405.333" x2="256" y2="192" gradientUnits="userSpaceOnUse">
<stop stop-color="#54A5FF"/>
<stop offset="1" stop-color="#8AD3FE"/>
</linearGradient>
<linearGradient id="paint2_linear_39_443" x1="330.667" y1="453.334" x2="426.667" y2="453.334" gradientUnits="userSpaceOnUse">
<stop stop-color="#FE9661"/>
<stop offset="1" stop-color="#FFB369"/>
</linearGradient>
<linearGradient id="paint3_linear_39_443" x1="313.669" y1="415.958" x2="368.914" y2="415.958" gradientUnits="userSpaceOnUse">
<stop stop-color="#FE9661"/>
<stop offset="1" stop-color="#FFB369"/>
</linearGradient>
<linearGradient id="paint4_linear_39_443" x1="160" y1="341.333" x2="373.333" y2="341.333" gradientUnits="userSpaceOnUse">
<stop stop-color="#FE9661"/>
<stop offset="1" stop-color="#FFB369"/>
</linearGradient>
<linearGradient id="paint5_linear_39_443" x1="181.333" y1="341.333" x2="352" y2="341.333" gradientUnits="userSpaceOnUse">
<stop stop-color="#D3E6F5"/>
<stop offset="1" stop-color="#F0F7FC"/>
</linearGradient>
</defs>
</svg>
