<svg width="512" height="512" viewBox="0 0 512 512" fill="none" xmlns="http://www.w3.org/2000/svg">
<path d="M433.798 106.268L337.375 15.046C327.119 5.343 313.695 0 299.577 0H116C85.673 0 61 24.673 61 55V457C61 487.327 85.673 512 116 512H396C426.327 512 451 487.327 451 457V146.222C451 131.173 444.73 116.61 433.798 106.268ZM404.661 120H330C327.243 120 325 117.757 325 115V44.636L404.661 120ZM396 482H116C102.215 482 91 470.785 91 457V55C91 41.215 102.215 30 116 30H295V115C295 134.299 310.701 150 330 150H421V457C421 470.785 409.785 482 396 482Z" fill="black"/>
</svg>
