<svg id="Layer_2_00000151514400512238451500000007680648697130117805_" enable-background="new 0 0 512 512" viewBox="0 0 512 512" xmlns="http://www.w3.org/2000/svg" xmlns:xlink="http://www.w3.org/1999/xlink"><linearGradient id="SVGID_1_" gradientTransform="matrix(1 0 0 -1 0 513)" gradientUnits="userSpaceOnUse" x1="11.449" x2="442.376" y1="458.376" y2="27.449"><stop offset="0" stop-color="#f6c012"/><stop offset=".86" stop-color="#ffa500"/></linearGradient><linearGradient id="SVGID_00000049908736788615406790000005521852373790038925_" gradientTransform="matrix(1 0 0 -1 0 513)" gradientUnits="userSpaceOnUse" x1="241" x2="241" y1="228.5" y2="358.5"><stop offset="0" stop-opacity=".25"/><stop offset="1" stop-opacity="0"/></linearGradient><linearGradient id="SVGID_00000123431226653257425010000011038792207943035016_" gradientTransform="matrix(1 0 0 -1 0 513)" gradientUnits="userSpaceOnUse" x1="107.893" x2="394.107" y1="407.447" y2="121.233"><stop offset="0" stop-color="#ffe0ad"/><stop offset="1" stop-color="#ffcd73"/></linearGradient><linearGradient id="SVGID_00000023264166677884521740000006835338470532321193_" gradientTransform="matrix(1 0 0 -1 0 513)" gradientUnits="userSpaceOnUse" x1="87.893" x2="374.107" y1="387.447" y2="101.233"><stop offset="0" stop-color="#fff7e6"/><stop offset="1" stop-color="#ffebbf"/></linearGradient><linearGradient id="SVGID_00000035510015687397637680000004749749681444764597_" gradientTransform="matrix(1 0 0 -1 0 513)" gradientUnits="userSpaceOnUse" x1="59.537" x2="422.463" y1="370.463" y2="7.537"><stop offset="0" stop-color="#ffe69d"/><stop offset="1" stop-color="#ffc321"/></linearGradient><linearGradient id="lg1"><stop offset="0" stop-color="#ffac40"/><stop offset="1" stop-color="#ff8700"/></linearGradient><linearGradient id="SVGID_00000003816269975697509910000016219397690420124554_" gradientTransform="matrix(1 0 0 -1 0 513)" gradientUnits="userSpaceOnUse" x1="-5" x2="25" xlink:href="#lg1" y1="194.5" y2="164.5"/><linearGradient id="lg2"><stop offset="0" stop-color="#ff8b00"/><stop offset="1" stop-color="#d45f00"/></linearGradient><linearGradient id="SVGID_00000056405080084686696970000005805461328368357541_" gradientTransform="matrix(1 0 0 -1 0 513)" gradientUnits="userSpaceOnUse" x1="15" x2="45" xlink:href="#lg2" y1="174.5" y2="144.5"/><linearGradient id="SVGID_00000057853531209384951480000016478824260136533428_" gradientTransform="matrix(1 0 0 -1 0 513)" gradientUnits="userSpaceOnUse" x1="35" x2="65" xlink:href="#lg1" y1="194.5" y2="164.5"/><linearGradient id="SVGID_00000096740687798768409710000006085929447921162135_" gradientTransform="matrix(1 0 0 -1 0 513)" gradientUnits="userSpaceOnUse" x1="55" x2="85" xlink:href="#lg2" y1="174.5" y2="144.5"/><linearGradient id="SVGID_00000177453711651568404390000011055491681327295159_" gradientTransform="matrix(1 0 0 -1 0 513)" gradientUnits="userSpaceOnUse" x1="75" x2="105" xlink:href="#lg1" y1="194.5" y2="164.5"/><linearGradient id="SVGID_00000125579839992079254970000017201312401714879115_" gradientTransform="matrix(1 0 0 -1 0 513)" gradientUnits="userSpaceOnUse" x1="95" x2="125" xlink:href="#lg2" y1="174.5" y2="144.5"/><linearGradient id="SVGID_00000043433179206413136370000009207497767395375003_" gradientTransform="matrix(1 0 0 -1 0 513)" gradientUnits="userSpaceOnUse" x1="115" x2="145" xlink:href="#lg1" y1="194.5" y2="164.5"/><linearGradient id="SVGID_00000058565543429352735350000001236269855591199127_" gradientTransform="matrix(1 0 0 -1 0 513)" gradientUnits="userSpaceOnUse" x1="135" x2="165" xlink:href="#lg2" y1="174.5" y2="144.5"/><linearGradient id="SVGID_00000072991850440215760320000015106466577025861513_" gradientTransform="matrix(1 0 0 -1 0 513)" gradientUnits="userSpaceOnUse" x1="155" x2="185" xlink:href="#lg1" y1="194.5" y2="164.5"/><linearGradient id="SVGID_00000136407426539254469150000017915655599424522418_" gradientTransform="matrix(1 0 0 -1 0 513)" gradientUnits="userSpaceOnUse" x1="175" x2="205" xlink:href="#lg2" y1="174.5" y2="144.5"/><linearGradient id="SVGID_00000126304354931452823710000005871306677361833118_" gradientTransform="matrix(1 0 0 -1 0 513)" gradientUnits="userSpaceOnUse" x1="195" x2="225" xlink:href="#lg1" y1="194.5" y2="164.5"/><linearGradient id="SVGID_00000152957154249498303930000011967120188926623661_" gradientTransform="matrix(1 0 0 -1 0 513)" gradientUnits="userSpaceOnUse" x1="215" x2="245" xlink:href="#lg2" y1="174.5" y2="144.5"/><linearGradient id="SVGID_00000036931166141192207380000011624095768539414161_" gradientTransform="matrix(1 0 0 -1 0 513)" gradientUnits="userSpaceOnUse" x1="235" x2="265" xlink:href="#lg1" y1="194.5" y2="164.5"/><linearGradient id="SVGID_00000021085065750948551580000010869391587104596665_" gradientTransform="matrix(1 0 0 -1 0 513)" gradientUnits="userSpaceOnUse" x1="255" x2="285" xlink:href="#lg2" y1="174.5" y2="144.5"/><linearGradient id="SVGID_00000173876739717384693240000007527689389139839906_" gradientTransform="matrix(1 0 0 -1 0 513)" gradientUnits="userSpaceOnUse" x1="275" x2="305" xlink:href="#lg1" y1="194.5" y2="164.5"/><linearGradient id="SVGID_00000005978621737765096320000008357543452384101297_" gradientTransform="matrix(1 0 0 -1 0 513)" gradientUnits="userSpaceOnUse" x1="295" x2="325" xlink:href="#lg2" y1="174.5" y2="144.5"/><linearGradient id="SVGID_00000107564815590268382040000015788732927146212498_" gradientTransform="matrix(1 0 0 -1 0 513)" gradientUnits="userSpaceOnUse" x1="315" x2="345" xlink:href="#lg1" y1="194.5" y2="164.5"/><linearGradient id="SVGID_00000080200021124810842370000014065446126204059552_" gradientTransform="matrix(1 0 0 -1 0 513)" gradientUnits="userSpaceOnUse" x1="335" x2="365" xlink:href="#lg2" y1="174.5" y2="144.5"/><linearGradient id="SVGID_00000075872549417097566220000017452701424904530576_" gradientTransform="matrix(1 0 0 -1 0 513)" gradientUnits="userSpaceOnUse" x1="355" x2="385" xlink:href="#lg1" y1="194.5" y2="164.5"/><linearGradient id="SVGID_00000090977212943185288530000016839169505270177664_" gradientTransform="matrix(1 0 0 -1 0 513)" gradientUnits="userSpaceOnUse" x1="409.525" x2="498.649" xlink:href="#lg2" y1="214.052" y2="124.929"/><g id="Icon"><g id="_05"><g id="Folder"><path d="m233.1 93-43.9-32.7c-10.4-7.7-22.9-11.8-35.8-11.8h-123.4c-16.6 0-30 13.4-30 30v355c0 16.6 13.4 30 30 30h422c16.6 0 30-13.4 30-30v-298.6c0-16.6-13.4-30-30-30h-183.1c-12.9-.1-25.4-4.2-35.8-11.9z" fill="url(#SVGID_1_)"/><path d="m0 154.5h482v130h-482z" fill="url(#SVGID_00000049908736788615406790000005521852373790038925_)"/><g><path d="m86 133.7h330c8.3 0 15 6.7 15 15v200c0 8.3-6.7 15-15 15h-330c-8.3 0-15-6.7-15-15v-200c0-8.3 6.7-15 15-15z" fill="url(#SVGID_00000123431226653257425010000011038792207943035016_)"/><path d="m66 153.7h330c8.3 0 15 6.7 15 15v200c0 8.3-6.7 15-15 15h-330c-8.3 0-15-6.7-15-15v-200c0-8.3 6.7-15 15-15z" fill="url(#SVGID_00000023264166677884521740000006835338470532321193_)"/></g><path d="m30 184.5h422c16.6 0 30 13.4 30 30v219c0 16.6-13.4 30-30 30h-422c-16.6 0-30-13.4-30-30v-219c0-16.6 13.4-30 30-30z" fill="url(#SVGID_00000035510015687397637680000004749749681444764597_)"/></g><g><path d="m0 313.5h20v40h-20z" fill="url(#SVGID_00000003816269975697509910000016219397690420124554_)"/><path d="m20 333.5h20v40h-20z" fill="url(#SVGID_00000056405080084686696970000005805461328368357541_)"/><path d="m40 313.5h20v40h-20z" fill="url(#SVGID_00000057853531209384951480000016478824260136533428_)"/><path d="m60 333.5h20v40h-20z" fill="url(#SVGID_00000096740687798768409710000006085929447921162135_)"/><path d="m80 313.5h20v40h-20z" fill="url(#SVGID_00000177453711651568404390000011055491681327295159_)"/><path d="m100 333.5h20v40h-20z" fill="url(#SVGID_00000125579839992079254970000017201312401714879115_)"/><path d="m120 313.5h20v40h-20z" fill="url(#SVGID_00000043433179206413136370000009207497767395375003_)"/><path d="m140 333.5h20v40h-20z" fill="url(#SVGID_00000058565543429352735350000001236269855591199127_)"/><path d="m160 313.5h20v40h-20z" fill="url(#SVGID_00000072991850440215760320000015106466577025861513_)"/><path d="m180 333.5h20v40h-20z" fill="url(#SVGID_00000136407426539254469150000017915655599424522418_)"/><path d="m200 313.5h20v40h-20z" fill="url(#SVGID_00000126304354931452823710000005871306677361833118_)"/><path d="m220 333.5h20v40h-20z" fill="url(#SVGID_00000152957154249498303930000011967120188926623661_)"/><path d="m240 313.5h20v40h-20z" fill="url(#SVGID_00000036931166141192207380000011624095768539414161_)"/><path d="m260 333.5h20v40h-20z" fill="url(#SVGID_00000021085065750948551580000010869391587104596665_)"/><path d="m280 313.5h20v40h-20z" fill="url(#SVGID_00000173876739717384693240000007527689389139839906_)"/><path d="m300 333.5h20v40h-20z" fill="url(#SVGID_00000005978621737765096320000008357543452384101297_)"/><path d="m320 313.5h20v40h-20z" fill="url(#SVGID_00000107564815590268382040000015788732927146212498_)"/><path d="m340 333.5h20v40h-20z" fill="url(#SVGID_00000080200021124810842370000014065446126204059552_)"/><path d="m360 313.5h20v40h-20z" fill="url(#SVGID_00000075872549417097566220000017452701424904530576_)"/><path d="m420 333.5h20v40h-20z" fill="#fff"/><path d="m444.9 304.1-54.2 16.2c-6.4 1.9-10.7 7.7-10.7 14.4v17.6c0 6.6 4.4 12.5 10.7 14.4l54.2 16.2c1.4.4 2.8.6 4.3.6h47.8c8.3 0 15-6.7 15-15v-50c0-8.3-6.7-15-15-15h-47.8c-1.5 0-2.9.2-4.3.6zm37.1 64.4h-5c-8.3 0-15-6.7-15-15v-20c0-8.3 6.7-15 15-15h5c8.3 0 15 6.7 15 15v20c0 8.3-6.7 15-15 15z" fill="url(#SVGID_00000090977212943185288530000016839169505270177664_)"/></g></g></g></svg>